<svg xmlns="http://www.w3.org/2000/svg" height="768" preserveAspectRatio="none" style="display: block;" version="1.1" viewBox="0 0 2048 1170" width="1344">
<path d="M 806.641 501.276 C 931.947 491.87 944.871 671.889 835.015 693.797 C 813.168 697.697 788.185 692.012 769.923 679.153 C 714.655 640.237 716.943 551.092 772.897 513.789 C 783.822 506.506 793.72 503.563 806.641 501.276 z M 825.518 654.681 C 893.013 639.752 879.227 536.047 815.058 540.303 C 748.913 551.181 757.404 658.474 825.518 654.681 z" fill="rgb(80,184,136)" transform="translate(0,0)"></path>
<path d="M 1004.62 501.316 C 1054.47 497.246 1091.78 525.587 1103.56 574.034 C 1110.17 600.189 1105.82 627.907 1091.53 650.785 C 1077.24 674.141 1056.05 688.22 1029.66 694.494 C 990.195 699.276 958.56 681.625 939.085 647.89 C 906.575 591.576 937.69 511.336 1004.62 501.316 z M 1022.43 654.688 C 1038.67 650.729 1049.23 644.358 1058.55 629.827 C 1074.65 604.714 1067.28 562.559 1041.02 546.919 C 1032.38 541.779 1022.35 539.485 1012.33 540.36 C 945.954 549.433 953.212 659.59 1022.43 654.688 z" fill="rgb(80,184,136)" transform="translate(0,0)"></path>
<path d="M 172.122 685.388 C 103.074 660.987 62.6243 594.716 55.9567 523.651 C 55.2439 516.055 53.2247 484.788 56.5872 479.269 C 63.031 475.622 83.4496 476.799 90.9789 476.777 C 162.196 476.557 226.624 515.114 241.586 587.847 C 243.544 597.369 246.515 618.99 241.235 627.137 C 237.906 629.252 233.982 628.344 230.295 627.469 C 175.43 614.45 150.569 582.455 121.893 538.109 C 123.134 543.328 124.499 548.517 125.986 553.671 C 143.352 612.477 202.929 670.782 268.274 651.458 C 248.432 673.297 215.645 683.858 186.791 685.235 C 181.906 685.494 177.012 685.545 172.122 685.388 z" fill="rgb(80,184,136)" transform="translate(0,0)"></path>
<path d="M 1367.98 430.39 C 1390.15 428.288 1412.38 433.799 1431 446.016 C 1442.9 453.937 1448.49 459.202 1451.2 472.724 C 1443.29 507.065 1418.34 485.436 1401.16 477.41 C 1394.07 474.127 1386.47 472.108 1378.7 471.446 C 1358.77 469.763 1337.03 479.552 1335.42 501.74 C 1332.67 539.61 1374.03 538.611 1400.07 546.342 C 1416.93 551.349 1434.63 558.771 1446.27 572.722 C 1470.32 602.279 1467.34 651.029 1436.78 675.151 C 1413.06 693.878 1389.77 697.65 1360.76 694.85 C 1335.37 695.297 1269.6 659.339 1290.3 630.631 C 1293.24 626.529 1297.75 623.831 1302.75 623.18 C 1317.67 621.189 1327.37 636.032 1337.97 644.057 C 1352.25 654.814 1370.17 656.03 1387.28 654.007 C 1407.12 651.659 1422.43 633.788 1419.01 613.645 C 1413.46 582.845 1373.43 582.88 1349.5 576.021 C 1318.49 567.134 1298.53 551.376 1293.63 517.751 C 1287.81 477.71 1308.42 447.093 1346.42 434.789 C 1354.18 432.276 1359.87 431.401 1367.98 430.39 z" fill="rgb(16,101,65)" transform="translate(0,0)"></path>
<path d="M 625.407 430.441 C 626.924 430.304 628.446 430.233 629.969 430.228 C 658.575 430.131 684.699 442.151 705.039 462.118 C 714.938 471.657 719.138 488.248 708.654 498.903 C 703.741 503.897 692.345 504.13 686.645 501.019 C 677.959 496.277 671.376 487.702 662.743 482.424 C 652.231 475.941 640.208 472.315 627.864 471.903 C 607.705 471.293 588.152 478.843 573.635 492.843 C 521.614 542.361 543.628 652.678 624.766 653.829 C 650.828 654.198 664.944 642.714 682.195 625.623 C 696.322 617.555 715.484 621.405 714.951 639.254 C 713.927 673.566 663.362 692.468 634.397 694.568 C 603.108 697.102 572.109 686.987 548.336 666.487 C 523.442 644.884 506.738 609.039 504.894 576.3 C 500.452 497.468 544.609 435.89 625.407 430.441 z" fill="rgb(80,184,136)" transform="translate(0,0)"></path>
<path d="M 1144.28 431.231 C 1145.07 431.198 1145.87 431.18 1146.67 431.174 C 1170.75 431.017 1167.47 454.292 1167.96 471.61 C 1168.19 479.646 1167.99 487.88 1167.99 495.937 L 1167.99 580.154 C 1187.07 564.476 1204.18 542.337 1222.54 525.314 C 1230.37 518.052 1242.62 501.959 1254.11 501.169 C 1270.96 500.01 1277.28 520.194 1267.48 532.322 C 1251.43 552.171 1231.4 569.923 1213.76 588.998 C 1218.48 595.632 1229.34 607.233 1235.15 613.731 C 1247.68 627.796 1260.29 641.789 1272.98 655.711 C 1291.88 678.433 1275.04 702.803 1250.68 688.4 C 1244.29 684.624 1227.68 664.535 1221.72 657.801 C 1209.63 644.073 1197.38 630.484 1184.97 617.035 C 1179.74 621.711 1173.06 628.99 1168.02 634.189 C 1168.12 648.38 1170.37 666.681 1166.25 680.295 C 1164.72 685.335 1161.78 690.69 1156.84 693.086 C 1151.71 695.58 1145.67 694.805 1140.5 692.793 C 1135.29 690.767 1131.83 685.466 1129.85 680.469 C 1126.95 673.154 1126.12 450.362 1129.89 442.624 C 1132.91 436.413 1137.89 433.246 1144.28 431.231 z" fill="rgb(80,184,136)" transform="translate(0,0)"></path>
<path d="M 1739.91 500.4 C 1746.26 500.426 1750.55 500.549 1756.9 501.77 C 1774.74 505.082 1790.44 515.561 1800.34 530.763 C 1818.71 558.366 1814.1 597.727 1814.21 629.623 C 1814.26 645.532 1819.25 678.619 1807 689.664 C 1797.74 698.007 1780.9 694.952 1777.71 681.844 C 1772.19 659.234 1776.38 632.873 1775.16 609.595 C 1774.6 581.763 1778.27 549.143 1743.89 540.366 C 1730.06 536.836 1719.11 540.184 1707.32 547.316 C 1700.83 553.092 1694.62 562.507 1692.97 570.967 C 1686.85 604.284 1691.96 636.75 1689.99 671.081 C 1688.83 691.313 1672.9 703.384 1655.94 687.109 C 1652.46 683.767 1650.85 669.971 1650.72 664.665 C 1649.9 616.715 1648.83 567.733 1650.22 519.824 C 1650.72 502.742 1674.55 491.846 1688.88 512.241 C 1689.25 517.55 1689.2 524.269 1689.32 529.696 C 1703.86 510.537 1715.36 502.488 1739.91 500.4 z" fill="rgb(16,101,65)" transform="translate(0,0)"></path>
<path d="M 1553.07 619.433 C 1557.99 611.747 1564 596.954 1567.87 588.194 L 1590.86 536.078 C 1594.2 528.524 1599.21 515.568 1603.89 509.28 C 1618.74 489.329 1642.98 509.019 1636.56 530.346 C 1631.69 546.5 1624.38 560.13 1617.31 574.995 L 1585.64 641.248 C 1575.45 664.194 1563.84 687.098 1553.45 710.105 C 1546.27 724.804 1540.21 740.237 1532.05 754.42 C 1525.65 766.012 1508.49 764.7 1501.49 754.571 C 1495.12 744.914 1501.59 729.808 1506.12 720.56 C 1515.02 702.364 1522.26 682.989 1531.29 664.986 C 1518.08 634.987 1500.34 605.131 1487.09 575.121 C 1477.93 554.363 1444.82 507.993 1484.03 501.276 C 1500.92 501.002 1504.67 515.988 1510.6 529.548 C 1523.92 560.005 1538.87 589.441 1553.07 619.433 z" fill="rgb(16,101,65)" transform="translate(0,0)"></path>
<path d="M 1922.67 500.447 C 1946.37 499.199 1962.9 505.609 1981.37 520.638 C 1990.49 525.744 1999.89 543.993 1989.26 552.601 C 1963.55 573.437 1958.82 537.28 1924.41 539.538 C 1910.41 540.402 1897.35 546.874 1888.19 557.489 C 1867.55 581.282 1868.54 622.329 1893.45 643.056 C 1900.82 649.16 1909.6 653.299 1919 655.085 C 1953.46 661.694 1953.41 637.31 1977.69 635.247 C 1984.56 636.71 1993.82 643.571 1993.94 650.561 C 1994.41 677.369 1955.46 693.008 1934.71 694.768 C 1910.33 697.028 1886.08 689.264 1867.54 673.264 C 1847.69 656.324 1835.9 631.392 1833.95 605.48 C 1832.09 578.885 1840.75 552.623 1858.06 532.353 C 1876.05 511.467 1895.62 502.473 1922.67 500.447 z" fill="rgb(16,101,65)" transform="translate(0,0)"></path>
<path d="M 268.274 651.458 C 281.696 639.804 312.75 597.481 312.825 579.136 C 312.922 555.598 301.646 536.106 316.97 510.299 C 324.459 496.47 367.877 406.965 378.257 405.754 C 381.042 407.498 380.22 406.494 381.392 409.51 C 378.854 420.977 372.779 433.476 368.299 444.402 C 360.062 464.492 351.564 484.52 342.942 504.449 C 341.111 508.682 337.368 516.053 340.293 520.386 C 340.805 521.145 342.153 521.612 343.04 522.059 C 350.797 521.973 352.308 515.875 354.84 510.222 C 364.431 488.806 375.409 467.519 387.053 447.132 C 390.743 440.671 398.9 420.845 405.505 419.548 C 408.585 421.249 407.708 420.193 408.817 423.473 C 406.443 443.465 382.652 481.864 375.833 502.036 C 372.748 511.164 356.357 531.226 369.626 536.209 C 373.163 535.619 374.201 535.998 376.141 532.758 C 384.482 518.829 422.552 439.494 431.91 434.297 C 435.065 435.037 433.927 434.341 436.095 437.176 C 436.811 450.322 391.727 554.635 378.153 569.243 C 368.046 581.509 348.391 582.681 338.889 595.115 C 329.455 607.458 323.872 623.834 316.698 637.56 C 288.071 692.323 226.836 700.448 172.122 685.388 C 177.012 685.545 181.906 685.494 186.791 685.235 C 215.645 683.858 248.432 673.297 268.274 651.458 z" fill="rgb(16,101,65)" transform="translate(0,0)"></path>
<metadata><recraft-signature>{"signed_by": "recraft", "signature_b64": "S6PcQ5um6DNGFzh797gj9KPTjHPCpRuvau72AuYB8qA8kJlMAqdY0rKq7tqYwqgtlCdeKS1ABfLv+e/bv6RlAw==", "signing_algo": "Ed25519", "generation_timestamp": 1780918202, "identifier": "74b48b5a-0a10-4c24-9e1a-74f2d85f50e3"}</recraft-signature></metadata></svg>