<svg xmlns="http://www.w3.org/2000/svg" height="1024" preserveAspectRatio="none" style="display: block;" version="1.1" viewBox="0 0 2048 2048" width="1024">
<defs>
	<linearGradient gradientUnits="userSpaceOnUse" id="Gradient1" x1="1382.59" x2="1379.29" y1="1004.89" y2="997.165">
		<stop class="stop0" offset="0" stop-color="rgb(255,255,255)" stop-opacity="0.305882"></stop>
		<stop class="stop1" offset="1" stop-color="rgb(255,255,255)" stop-opacity="0.360784"></stop>
	</linearGradient>
	<linearGradient gradientUnits="userSpaceOnUse" id="Gradient2" x1="1247.99" x2="1268.16" y1="781.864" y2="774.73">
		<stop class="stop0" offset="0" stop-color="rgb(255,255,254)" stop-opacity="0.352941"></stop>
		<stop class="stop1" offset="1" stop-color="rgb(255,255,255)" stop-opacity="0.470588"></stop>
	</linearGradient>
	<linearGradient gradientUnits="userSpaceOnUse" id="Gradient3" x1="1333.76" x2="1430.62" y1="890.849" y2="860.947">
		<stop class="stop0" offset="0" stop-color="rgb(255,255,255)" stop-opacity="0.352941"></stop>
		<stop class="stop1" offset="1" stop-color="rgb(255,255,255)" stop-opacity="0.682353"></stop>
	</linearGradient>
</defs>
<path d="M 478.291 1356.93 C 476.302 1326.33 478.609 1276.47 479.884 1245.5 C 486.495 1084.84 509.006 915.352 589.546 773.384 C 647.007 673.523 739.366 588.632 845.346 542.401 C 1015.29 468.269 1213.03 481.196 1393.67 489.701 C 1410.68 490.623 1427.71 491.328 1444.74 491.817 C 1460.9 492.197 1475.93 492.079 1492 494.083 C 1528.49 498.634 1558.69 527.543 1567.84 562.76 C 1574.2 587.254 1570.33 619.315 1568.22 644.994 C 1558.75 760.448 1533.25 875.098 1492.38 983.487 C 1487.33 996.858 1476.81 1024.07 1470.38 1035.29 C 1441.24 1014.24 1441.91 1011.45 1406.8 997.931 C 1407.26 993.417 1407.19 992.137 1407.01 987.64 C 1407.93 981.397 1407.12 947.635 1406.85 940.049 C 1407.94 889.241 1406.59 838.029 1407.06 787.194 C 1407.2 772.009 1406.81 757.872 1401.96 743.327 C 1389.22 705.132 1340.41 683.191 1303.21 696.867 C 1291.1 700.835 1277.49 710.268 1269.44 720.06 L 1265.33 724.73 C 1263.66 726.787 1262.53 728.305 1261.02 730.493 C 1248.28 753.98 1248.43 775.34 1250.09 802.02 C 1249.82 842.116 1249.78 882.213 1249.98 922.309 C 1250.02 946.096 1250.57 972.41 1249.57 995.956 C 1220.23 1008.72 1199.07 1021.29 1175.98 1044.01 C 1139.41 1079.98 1114.1 1128.01 1109.06 1179.36 C 1107.17 1198.57 1107.9 1215.95 1107.72 1235.14 C 1077.73 1228.49 1054.45 1226.14 1024.27 1223.14 C 947.729 1215.52 892.571 1219.5 819.391 1240.83 C 824.46 1230.11 832.489 1216.35 838.287 1205.61 C 850.17 1183.25 862.249 1161 874.525 1138.86 C 938.454 1022.54 995.242 924.634 1089.74 829.678 C 1108.27 810.84 1127.97 793.192 1148.73 776.841 C 1158.3 769.372 1167.95 761.94 1177.49 754.427 C 1183.14 749.974 1190.29 745.451 1195.27 740.483 L 1194.67 738.234 C 1194.93 738.446 1195.74 739.063 1195.7 739.144 C 1195.65 739.271 1196.19 740.544 1196.48 740.386 C 1201.99 737.404 1223 723.349 1226.89 720.572 C 1222.3 722.619 1194.9 734.787 1192.64 736.685 C 1172.27 744.025 1148.65 756.341 1130.26 767.432 C 1020.31 833.731 934.38 931.068 865.521 1038.22 C 860.127 1046.61 854.223 1058.11 848.342 1065.8 L 846.328 1068.71 L 845.427 1068.28 C 844.47 1062.69 845.257 1053.38 845.54 1047.41 C 844.97 1044.43 844.6 1030.57 844.307 1026.72 C 843.154 1012.92 841.446 999.172 839.189 985.509 C 835.834 965.689 829.836 944.353 825.698 924.475 C 815.952 877.656 809.297 825.678 814.14 777.838 C 816.013 759.236 819.416 740.821 824.315 722.778 C 825.781 717.249 837.856 682.653 837.854 681.064 C 836.016 682.095 829.538 695.095 827.926 697.916 C 790.218 763.915 772.662 839.547 774.221 915.349 C 774.516 929.7 774.269 953.221 776.452 966.708 C 811.486 1183.17 669.014 1303.88 478.291 1356.93 z" fill="rgb(47,158,96)" transform="translate(0,0)"></path>
<path d="M 1301.14 743.809 C 1318.88 730.178 1342.74 730.192 1358.4 747.022 C 1361.09 750.982 1362.14 753.124 1364.45 757.276 C 1366.46 766.847 1366.55 779.074 1366.5 788.969 L 1366.61 884.6 C 1366.6 900.079 1365.91 923.404 1367 938.032 C 1366.37 961.414 1367.14 984.948 1366.94 1008.32 C 1366.95 1009.93 1366.98 1011.54 1367.02 1013.16 L 1366.97 1028.62 C 1390.43 1034.5 1407.94 1041.2 1428.15 1055.02 C 1469.99 1083.73 1498.66 1127.93 1507.81 1177.84 C 1512.83 1205.67 1511.43 1238.69 1511.44 1267.4 L 1511.37 1386.83 L 1511.32 1473.72 C 1511.35 1494.1 1514.82 1529.2 1502.76 1545.71 C 1496.46 1554.3 1486.97 1560 1476.43 1561.52 C 1466.1 1563.15 1455.55 1560.54 1447.17 1554.28 C 1439.53 1548.42 1434.22 1540.04 1432.19 1530.63 C 1430.26 1521.59 1431.01 1479.66 1431.02 1467.65 L 1430.83 1307.42 L 1431.06 1256.83 C 1431.13 1237.41 1434.54 1216.7 1416.43 1204.54 C 1404.14 1193.02 1372.04 1202.41 1369.16 1218.84 C 1366.59 1233.46 1367.81 1261.62 1367.81 1277.22 L 1367.58 1441.95 C 1367.5 1469.15 1367.63 1496.23 1366.6 1523.37 C 1366.94 1568.6 1297.56 1576.85 1291.48 1532.3 C 1287.99 1506.75 1289.52 1473.95 1289.5 1447.7 L 1289.51 1281.7 C 1289.49 1261.51 1290.24 1237.66 1288.15 1217.52 C 1287.44 1210.72 1282.63 1204.19 1276.82 1200.36 C 1270.05 1195.94 1261.79 1194.41 1253.89 1196.12 C 1233.24 1200.5 1230.26 1218.71 1231.17 1236.43 C 1231.81 1248.84 1231.79 1262.18 1231.78 1274.63 L 1231.45 1451.52 C 1231.27 1472.63 1231.46 1493.73 1231.37 1514.84 C 1231.33 1524.82 1229.9 1535.04 1224.39 1543.59 C 1218.61 1552.57 1209.4 1558.79 1198.9 1560.8 C 1174.91 1565.55 1152.16 1548.68 1149 1525.07 C 1147.13 1511.18 1148.03 1493.78 1148.03 1479.51 L 1147.98 1400.01 L 1147.79 1266.39 C 1147.75 1239.37 1146.49 1200.41 1150.79 1174.87 C 1155.4 1147.91 1165.98 1122.33 1181.77 1099.99 C 1202.91 1070.08 1235.24 1046.02 1269.47 1033.43 C 1275.84 1031.09 1283.48 1027.81 1290.04 1026.69 L 1290.72 825.52 C 1291.7 805.791 1287.51 769.537 1294.08 753.326 C 1295.41 751.458 1300.41 745.019 1301.14 743.809 z" fill="rgb(47,158,96)" transform="translate(0,0)"></path>
<path d="M 920.717 1267.55 C 968.567 1265.1 1062.7 1274.22 1108 1289.79 C 1108.08 1326.55 1107.17 1365.53 1108.41 1402.08 C 1094.05 1408.44 1057.04 1419.73 1041.73 1424.17 C 934.233 1455.37 816.943 1468.73 705.199 1473.22 C 696.025 1474.04 685.284 1474.53 675.983 1474.58 C 621.094 1474.87 561.168 1482.88 519.73 1439.26 C 580.209 1416.57 625.845 1392.64 679.423 1355.63 C 700.516 1341.06 728.059 1317.34 749.31 1306.95 C 802.652 1280.86 862.094 1270.94 920.717 1267.55 z" fill="rgb(47,158,96)" transform="translate(0,0)"></path>
<path d="M 1367 938.032 C 1367.35 933.983 1367.38 933.885 1368.69 930.027 L 1369.11 931.464 C 1370.41 928.496 1369.18 894.503 1369.57 887.558 C 1373.36 892.172 1369.34 914.957 1371.31 921.713 C 1384.33 908.991 1375.26 796.615 1380.55 773.775 C 1381.6 769.259 1376.65 759.218 1379.21 751.991 C 1381.48 749.471 1381.4 749.71 1384.72 748.776 C 1392.23 753.743 1387.29 770.941 1391.43 783.996 C 1392.49 779.591 1392.66 757.213 1390.29 752.573 C 1387.12 746.36 1383.76 747.863 1379.84 746.414 C 1383.29 741.825 1387.45 742.801 1391.66 745.478 C 1396.73 752.371 1391.2 774.203 1395.8 780.648 C 1397.35 779.024 1395.26 764.822 1397.45 757.365 L 1399.18 759.934 C 1400.34 762.799 1405.92 790.83 1405.8 793.991 C 1400.65 794.991 1404.88 801.058 1405.89 805.551 C 1404.99 837.572 1404.29 868.117 1405.91 900.166 C 1406.52 912.166 1405.57 928.585 1406.85 940.049 C 1407.12 947.635 1407.93 981.397 1407.01 987.64 C 1404.47 990.39 1400.37 996.701 1398.52 999.967 C 1389.2 999.485 1394.73 997.488 1390.58 994.774 C 1390.33 995.149 1389.77 996.453 1389.74 996.454 C 1386.75 996.569 1383.5 995.815 1381.23 998.558 C 1379.7 1000.41 1375.47 998.666 1374.97 999.727 C 1374.1 1001.61 1374.44 1006 1374.38 1008.18 C 1371.45 1008.4 1369.91 1008.44 1366.94 1008.32 C 1367.14 984.948 1366.37 961.414 1367 938.032 z" fill="url(#Gradient3)" transform="translate(0,0)"></path>
<path d="M 1303.21 696.867 C 1340.41 683.191 1389.22 705.132 1401.96 743.327 C 1406.81 757.872 1407.2 772.009 1407.06 787.194 C 1406.59 838.029 1407.94 889.241 1406.85 940.049 C 1405.57 928.585 1406.52 912.166 1405.91 900.166 C 1404.29 868.117 1404.99 837.572 1405.89 805.551 C 1405.94 801.697 1405.91 797.843 1405.8 793.991 C 1405.92 790.83 1400.34 762.799 1399.18 759.934 C 1399.42 758.135 1399.08 756.243 1398.14 754.962 C 1395.05 750.767 1397.35 739.763 1392.82 739.196 C 1386.59 738.416 1382.21 739.359 1377.04 741.94 C 1371.01 749.847 1370.15 754.738 1370.9 764.524 L 1371.07 763.951 C 1371.99 769.89 1374.06 778.804 1371.93 784.177 C 1371.83 782.275 1371.84 779.424 1371.31 777.723 C 1371.72 786.772 1369.1 786.562 1368.63 793.395 L 1368.47 792.481 L 1368.12 793.102 L 1368.21 791.286 L 1367.02 790.501 L 1366.5 788.969 C 1366.55 779.074 1366.46 766.847 1364.45 757.276 C 1365.67 754.759 1365.8 752.809 1365.66 749.925 C 1365.61 749.122 1365.23 748.377 1364.6 747.877 C 1362.6 746.254 1360.67 746.673 1358.4 747.022 C 1342.74 730.192 1318.88 730.178 1301.14 743.809 C 1303 740.616 1303.45 739.555 1304.25 735.682 C 1304.94 732.372 1299.33 736.828 1298.96 732.485 C 1298.82 730.831 1304.62 724.185 1306.51 723.502 C 1307.67 723.824 1308.74 727.167 1309.93 725.324 C 1311.1 723.456 1311.25 718.481 1311.09 716.486 C 1310.56 709.748 1296.16 713.85 1292.43 714.492 C 1290.61 714.807 1285.41 717.944 1283.28 717.004 C 1283.35 716.935 1283.42 716.866 1283.49 716.797 C 1283.36 716.627 1282.4 715.925 1282.23 715.912 C 1280.85 715.971 1279.24 711.005 1281.8 712.909 C 1290.42 719.306 1288.46 700.642 1296.37 704.65 C 1298.69 705.825 1303.81 704.017 1304.09 702.135 C 1304.29 700.735 1304.06 698.503 1303.21 696.867 z" fill="rgb(254,254,254)" fill-opacity="0.807843" transform="translate(0,0)"></path>
<path d="M 1366.5 788.969 L 1367.02 790.501 L 1368.21 791.286 L 1368.12 793.102 L 1368.47 792.481 L 1368.63 793.395 C 1369.1 786.562 1371.72 786.772 1371.31 777.723 C 1371.84 779.424 1371.83 782.275 1371.93 784.177 C 1374.06 778.804 1371.99 769.89 1371.07 763.951 L 1370.9 764.524 C 1370.15 754.738 1371.01 749.847 1377.04 741.94 C 1382.21 739.359 1386.59 738.416 1392.82 739.196 C 1397.35 739.763 1395.05 750.767 1398.14 754.962 C 1399.08 756.243 1399.42 758.135 1399.18 759.934 L 1397.45 757.365 C 1395.26 764.822 1397.35 779.024 1395.8 780.648 C 1391.2 774.203 1396.73 752.371 1391.66 745.478 C 1387.45 742.801 1383.29 741.825 1379.84 746.414 C 1383.76 747.863 1387.12 746.36 1390.29 752.573 C 1392.66 757.213 1392.49 779.591 1391.43 783.996 C 1387.29 770.941 1392.23 753.743 1384.72 748.776 C 1381.4 749.71 1381.48 749.471 1379.21 751.991 C 1376.65 759.218 1381.6 769.259 1380.55 773.775 C 1375.26 796.615 1384.33 908.991 1371.31 921.713 C 1369.34 914.957 1373.36 892.172 1369.57 887.558 C 1369.18 894.503 1370.41 928.496 1369.11 931.464 L 1368.69 930.027 C 1367.38 933.885 1367.35 933.983 1367 938.032 C 1365.91 923.404 1366.6 900.079 1366.61 884.6 L 1366.5 788.969 z" fill="rgb(254,254,254)" fill-opacity="0.709804" transform="translate(0,0)"></path>
<path d="M 1269.44 720.06 C 1273.58 729.668 1278.83 724.618 1287.91 723.198 C 1293.64 722.301 1297.82 721.241 1294.32 729.407 C 1288.62 738.342 1292.73 744.033 1294.08 753.326 C 1287.51 769.537 1291.7 805.791 1290.72 825.52 C 1289.14 816.243 1291.59 808.181 1288.46 797.971 C 1286.78 799.405 1287.14 819.232 1285.63 822.565 C 1284.74 824.534 1283.84 830.91 1283.43 833.367 L 1282.73 832.018 C 1283.48 829.508 1284.9 811.529 1285.22 807.729 C 1282 803.125 1281.44 802.447 1281.84 797 C 1282.61 797.151 1283.58 797.51 1284.35 797.2 C 1286.61 793.138 1278.83 766.954 1277.76 761.148 L 1277.57 760.053 C 1278.79 756.733 1286.79 740.339 1282.32 735.63 C 1280.1 733.293 1273.92 733.728 1275.17 740.163 C 1272.67 743.064 1267.56 747.653 1267.95 751.628 C 1270.3 775.268 1269.69 799.454 1269.72 823.165 C 1269.72 824.754 1265.21 835.108 1264.33 837.185 C 1262.64 830.976 1264.88 818.93 1263.57 810.75 C 1263.07 807.942 1261.22 798.7 1262.11 796.003 C 1265.15 786.745 1260.09 775.858 1262.63 766.999 C 1263.96 762.356 1260.31 745.333 1256.45 744.642 C 1255.29 745.381 1254.76 750.257 1255.09 751.98 L 1255.16 751.983 C 1255.51 753.359 1255.69 772.435 1255.34 773.999 C 1252.31 787.47 1257.13 802.8 1254.24 816.058 C 1251.61 803.554 1252.52 772.624 1252.41 758.171 C 1250.84 764.025 1251.11 792.813 1250.09 802.02 C 1248.43 775.34 1248.28 753.98 1261.02 730.493 C 1268.8 736.853 1268.85 730.494 1265.33 724.73 L 1269.44 720.06 z" fill="rgb(254,254,254)" fill-opacity="0.380392" transform="translate(0,0)"></path>
<path d="M 1269.44 720.06 C 1277.49 710.268 1291.1 700.835 1303.21 696.867 C 1304.06 698.503 1304.29 700.735 1304.09 702.135 C 1303.81 704.017 1298.69 705.825 1296.37 704.65 C 1288.46 700.642 1290.42 719.306 1281.8 712.909 C 1279.24 711.005 1280.85 715.971 1282.23 715.912 C 1282.4 715.925 1283.36 716.627 1283.49 716.797 C 1283.42 716.866 1283.35 716.935 1283.28 717.004 C 1285.41 717.944 1290.61 714.807 1292.43 714.492 C 1296.16 713.85 1310.56 709.748 1311.09 716.486 C 1311.25 718.481 1311.1 723.456 1309.93 725.324 C 1308.74 727.167 1307.67 723.824 1306.51 723.502 C 1304.62 724.185 1298.82 730.831 1298.96 732.485 C 1299.33 736.828 1304.94 732.372 1304.25 735.682 C 1303.45 739.555 1303 740.616 1301.14 743.809 C 1300.41 745.019 1295.41 751.458 1294.08 753.326 C 1292.73 744.033 1288.62 738.342 1294.32 729.407 C 1297.82 721.241 1293.64 722.301 1287.91 723.198 C 1278.83 724.618 1273.58 729.668 1269.44 720.06 z" fill="rgb(254,254,254)" fill-opacity="0.627451" transform="translate(0,0)"></path>
<path d="M 1254.24 816.058 C 1257.13 802.8 1252.31 787.47 1255.34 773.999 C 1255.69 772.435 1255.51 753.359 1255.16 751.983 L 1255.09 751.98 C 1254.76 750.257 1255.29 745.381 1256.45 744.642 C 1260.31 745.333 1263.96 762.356 1262.63 766.999 C 1260.09 775.858 1265.15 786.745 1262.11 796.003 C 1261.22 798.7 1263.07 807.942 1263.57 810.75 C 1261.9 812.16 1259.01 813.981 1259 815.926 C 1258.98 824.446 1259.01 833.077 1259 841.599 C 1256.89 834.425 1254.12 823.393 1254.24 816.058 z" fill="url(#Gradient2)" transform="translate(0,0)"></path>
<path d="M 1275.17 740.163 C 1273.92 733.728 1280.1 733.293 1282.32 735.63 C 1286.79 740.339 1278.79 756.733 1277.57 760.053 L 1277.76 761.148 C 1278.83 766.954 1286.61 793.138 1284.35 797.2 C 1283.58 797.51 1282.61 797.151 1281.84 797 C 1281.37 793.362 1278.91 791.361 1278.98 788.623 C 1279.11 786.08 1278.71 778.896 1277.73 776.915 C 1274.55 770.449 1272.38 766.788 1273.55 759 C 1274.95 755.468 1276.03 752.639 1277.18 749.096 C 1278.32 745.566 1283.9 737.563 1275.17 740.163 z" fill="rgb(254,254,254)" fill-opacity="0.309804" transform="translate(0,0)"></path>
<path d="M 1374.38 1008.18 C 1374.44 1006 1374.1 1001.61 1374.97 999.727 C 1375.47 998.666 1379.7 1000.41 1381.23 998.558 C 1383.5 995.815 1386.75 996.569 1389.74 996.454 C 1389.77 996.453 1390.33 995.149 1390.58 994.774 C 1394.73 997.488 1389.2 999.485 1398.52 999.967 C 1401.08 999.511 1403.64 999.009 1406.18 998.462 C 1404.43 1003.74 1403.04 1004.53 1399.05 1008.69 C 1396.6 1008.06 1394.4 1007.96 1392.64 1006.59 C 1388.43 1003.33 1387.27 1003.01 1384.17 1007.03 C 1383.14 1008.37 1376.42 1008.13 1374.38 1008.18 z" fill="url(#Gradient1)" transform="translate(0,0)"></path>
<path d="M 1374.38 1008.18 C 1376.42 1008.13 1383.14 1008.37 1384.17 1007.03 C 1387.27 1003.01 1388.43 1003.33 1392.64 1006.59 C 1394.4 1007.96 1396.6 1008.06 1399.05 1008.69 C 1396.33 1009.07 1387.35 1007.95 1386.89 1008.84 C 1379.32 1023.26 1379.98 1016.45 1367.02 1013.16 C 1366.98 1011.54 1366.95 1009.93 1366.94 1008.32 C 1369.91 1008.44 1371.45 1008.4 1374.38 1008.18 z" fill="rgb(254,254,254)" fill-opacity="0.192157" transform="translate(0,0)"></path>
<path d="M 1192.64 736.685 C 1194.9 734.787 1222.3 722.619 1226.89 720.572 C 1223 723.349 1201.99 737.404 1196.48 740.386 C 1196.19 740.544 1195.65 739.271 1195.7 739.144 C 1195.74 739.063 1194.93 738.446 1194.67 738.234 L 1192.64 736.685 z" fill="rgb(210,245,228)" fill-opacity="0.984314" transform="translate(0,0)"></path>
<path d="M 1398.52 999.967 C 1400.37 996.701 1404.47 990.39 1407.01 987.64 C 1407.19 992.137 1407.26 993.417 1406.8 997.931 L 1406.18 998.462 C 1403.64 999.009 1401.08 999.511 1398.52 999.967 z" fill="rgb(254,254,254)" fill-opacity="0.313725" transform="translate(0,0)"></path>
<path d="M 1358.4 747.022 C 1360.67 746.673 1362.6 746.254 1364.6 747.877 C 1365.23 748.377 1365.61 749.122 1365.66 749.925 C 1365.8 752.809 1365.67 754.759 1364.45 757.276 C 1362.14 753.124 1361.09 750.982 1358.4 747.022 z" fill="rgb(254,254,254)" fill-opacity="0.678431" transform="translate(0,0)"></path>
<path d="M 1261.02 730.493 C 1262.53 728.305 1263.66 726.787 1265.33 724.73 C 1268.85 730.494 1268.8 736.853 1261.02 730.493 z" fill="rgb(254,254,254)" fill-opacity="0.541176" transform="translate(0,0)"></path>
<path d="M 1405.89 805.551 C 1404.88 801.058 1400.65 794.991 1405.8 793.991 C 1405.91 797.843 1405.94 801.697 1405.89 805.551 z" fill="rgb(254,254,254)" fill-opacity="0.658824" transform="translate(0,0)"></path>
<metadata><recraft-signature>{"signed_by": "recraft", "signature_b64": "MRsL8hTO4ccG9JZ5uHAAnhvyCaIrZIYM7icoGVbORH8cgpNdi890U7JpNOn5MUYjTf/ZaRAuqt9v6WMDxbhuBw==", "signing_algo": "Ed25519", "generation_timestamp": 1780917294, "identifier": "22ce4fda-93f5-475d-8091-2ceeb2979507"}</recraft-signature></metadata></svg>